<svg viewBox="0 0 680 700" width="100%" role="img" xmlns="http://www.w3.org/2000/svg">
<title>codex 宠物小鑫写实肖像版</title>
<desc>写实扁平矢量风肖像：方正脸型、侧分短发、浓直眉、方框黑眼镜、灰米色 Polo 衫</desc>

<circle cx="340" cy="350" r="268" fill="#F1EFE8"/>

<path d="M140 700 C 152 596 244 552 340 552 C 436 552 528 596 540 700 Z" fill="#DCD7CA"/>
<path d="M286 556 L340 606 L314 622 L268 572 Z" fill="#CFC9BA"/>
<path d="M394 556 L340 606 L366 622 L412 572 Z" fill="#CFC9BA"/>
<rect x="333" y="606" width="14" height="60" fill="#F4F1E9"/>
<circle cx="340" cy="634" r="5.5" fill="#A9A396"/>
<path d="M150 640 C 190 610 230 596 268 590" fill="none" stroke="#C7C1B2" stroke-width="3"/>
<path d="M530 640 C 490 610 450 596 412 590" fill="none" stroke="#C7C1B2" stroke-width="3"/>

<rect x="302" y="452" width="76" height="112" fill="#F2D8BE"/>
<ellipse cx="340" cy="472" rx="42" ry="16" fill="#E4C2A2"/>

<ellipse cx="206" cy="366" rx="15" ry="27" fill="#F2D8BE"/>
<path d="M202 352 C 196 362 196 374 203 382" fill="none" stroke="#E4C2A2" stroke-width="4" stroke-linecap="round"/>
<ellipse cx="474" cy="366" rx="15" ry="27" fill="#F2D8BE"/>
<path d="M478 352 C 484 362 484 374 477 382" fill="none" stroke="#E4C2A2" stroke-width="4" stroke-linecap="round"/>

<path d="M212 280 C 205 372 220 452 266 488 C 298 513 382 513 414 488 C 460 452 475 372 468 280 L 468 240 L 212 240 Z" fill="#F2D8BE"/>
<path d="M414 488 C 382 513 298 513 266 488 C 282 501 320 508 340 508 C 360 508 398 501 414 488 Z" fill="#E9C9AC"/>

<path d="M200 372 C 188 218 242 146 340 144 C 438 146 492 218 480 372 C 477 306 469 272 453 264 C 429 254 420 234 382 230 C 352 227 332 240 302 233 C 272 226 252 250 236 262 C 219 275 206 316 200 372 Z" fill="#26262B"/>
<path d="M296 158 C 292 186 288 210 280 232" fill="none" stroke="#3B3B42" stroke-width="4" stroke-linecap="round"/>
<path d="M340 152 C 338 178 336 202 332 226" fill="none" stroke="#3B3B42" stroke-width="4" stroke-linecap="round"/>
<path d="M392 158 C 396 184 400 208 404 230" fill="none" stroke="#3B3B42" stroke-width="4" stroke-linecap="round"/>
<path d="M246 190 C 242 212 238 234 234 254" fill="none" stroke="#3B3B42" stroke-width="4" stroke-linecap="round"/>
<path d="M438 190 C 444 212 448 234 452 254" fill="none" stroke="#3B3B42" stroke-width="4" stroke-linecap="round"/>

<rect x="240" y="296" width="82" height="14" rx="7" fill="#26262B"/>
<rect x="358" y="296" width="82" height="14" rx="7" fill="#26262B"/>

<path d="M220 336 L 202 330" fill="none" stroke="#17171B" stroke-width="7" stroke-linecap="round"/>
<path d="M460 336 L 478 330" fill="none" stroke="#17171B" stroke-width="7" stroke-linecap="round"/>
<rect x="220" y="320" width="116" height="76" rx="12" fill="#EEF4F8" stroke="#17171B" stroke-width="7"/>
<rect x="344" y="320" width="116" height="76" rx="12" fill="#EEF4F8" stroke="#17171B" stroke-width="7"/>
<rect x="336" y="332" width="8" height="8" fill="#17171B"/>

<path d="M246 358 Q 268 346 290 358 Q 268 367 246 358 Z" fill="#FFFFFF"/>
<circle cx="268" cy="356" r="9" fill="#3A2E22"/>
<circle cx="268" cy="356" r="4.5" fill="#17120C"/>
<circle cx="264" cy="352" r="2.5" fill="#FFFFFF"/>
<path d="M246 358 Q 268 346 290 358" fill="none" stroke="#8A6F55" stroke-width="3" stroke-linecap="round"/>

<path d="M390 358 Q 412 346 434 358 Q 412 367 390 358 Z" fill="#FFFFFF"/>
<circle cx="412" cy="356" r="9" fill="#3A2E22"/>
<circle cx="412" cy="356" r="4.5" fill="#17120C"/>
<circle cx="408" cy="352" r="2.5" fill="#FFFFFF"/>
<path d="M390 358 Q 412 346 434 358" fill="none" stroke="#8A6F55" stroke-width="3" stroke-linecap="round"/>

<path d="M326 396 L 322 418" fill="none" stroke="#E0BE9C" stroke-width="4" stroke-linecap="round"/>
<path d="M354 396 L 358 418" fill="none" stroke="#E0BE9C" stroke-width="4" stroke-linecap="round"/>
<path d="M322 424 Q 340 433 358 424" fill="none" stroke="#D9B591" stroke-width="4" stroke-linecap="round"/>
<circle cx="329" cy="421" r="2.5" fill="#D9B591"/>
<circle cx="351" cy="421" r="2.5" fill="#D9B591"/>

<path d="M306 458 Q 340 448 374 458 Q 340 462 306 458 Z" fill="#C99283"/>
<path d="M310 460 Q 340 474 370 460 Q 340 466 310 460 Z" fill="#D8A392"/>
<path d="M306 458 Q 340 452 374 458" fill="none" stroke="#B57E6F" stroke-width="3" stroke-linecap="round"/>
</svg>
