<svg xmlns="http://www.w3.org/2000/svg" viewBox="0 0 600 480" font-family="-apple-system,BlinkMacSystemFont,'PingFang SC',sans-serif">
  <defs>
    <marker id="arr" viewBox="0 0 10 10" refX="8" refY="5" markerWidth="6" markerHeight="6" orient="auto-start-reverse">
      <path d="M0,0 L10,5 L0,10 z" fill="#64748b"/>
    </marker>
  </defs>
  <rect class="at-svg-bg" width="600" height="480"/>
  <text class="at-svg-title" x="300" y="32" text-anchor="middle" font-size="20" font-weight="600">视频编码核心：DCT + 量化</text>
  <text x="300" y="56" text-anchor="middle" font-size="13" fill="#64748b">空域 → 频域 · 量化丢高频 · 主流 H.264/265/AV1 都用</text>

  <!-- 编码流程 -->
  <g>
    <text x="50" y="90" font-size="13" font-weight="700" fill="#1e293b">① 视频编码核心 6 步</text>

    <rect class="at-hover-card" x="40" y="105" width="80" height="60" rx="6" fill="#dbeafe" stroke="#3b82f6" stroke-width="1.5"/>
    <text x="80" y="128" text-anchor="middle" font-size="11" font-weight="700" fill="#1e40af">像素</text>
    <text x="80" y="148" text-anchor="middle" font-size="9" fill="#475569">YUV 帧</text>

    <path d="M120,135 L145,135" stroke="#64748b" stroke-width="1.5" fill="none" marker-end="url(#arr)"/>

    <rect class="at-hover-card" x="145" y="105" width="80" height="60" rx="6" fill="#dcfce7" stroke="#10b981" stroke-width="1.5"/>
    <text x="185" y="128" text-anchor="middle" font-size="11" font-weight="700" fill="#047857">分块</text>
    <text x="185" y="148" text-anchor="middle" font-size="9" fill="#10b981">8×8 / 4×4</text>

    <path d="M225,135 L250,135" stroke="#64748b" stroke-width="1.5" fill="none" marker-end="url(#arr)"/>

    <rect class="at-hover-card" x="250" y="105" width="80" height="60" rx="6" fill="#fef3c7" stroke="#f59e0b" stroke-width="1.5"/>
    <text x="290" y="128" text-anchor="middle" font-size="11" font-weight="700" fill="#92400e">DCT</text>
    <text x="290" y="148" text-anchor="middle" font-size="9" fill="#f59e0b">→ 频域</text>

    <path d="M330,135 L355,135" stroke="#64748b" stroke-width="1.5" fill="none" marker-end="url(#arr)"/>

    <rect class="at-hover-card" x="355" y="105" width="80" height="60" rx="6" fill="#e9d5ff" stroke="#8b5cf6" stroke-width="1.5"/>
    <text x="395" y="128" text-anchor="middle" font-size="11" font-weight="700" fill="#5b21b6">量化</text>
    <text x="395" y="148" text-anchor="middle" font-size="9" fill="#8b5cf6">丢高频</text>

    <path d="M435,135 L460,135" stroke="#64748b" stroke-width="1.5" fill="none" marker-end="url(#arr)"/>

    <rect class="at-hover-card" x="460" y="105" width="100" height="60" rx="6" fill="#fee2e2" stroke="#dc2626" stroke-width="1.5"/>
    <text x="510" y="128" text-anchor="middle" font-size="11" font-weight="700" fill="#991b1b">熵编码</text>
    <text x="510" y="148" text-anchor="middle" font-size="9" fill="#dc2626">→ 比特流</text>
  </g>

  <!-- DCT 8x8 示意 -->
  <g>
    <text x="50" y="195" font-size="13" font-weight="700" fill="#1e293b">② 8×8 DCT 块频域分布</text>

    <rect class="at-hover-card" x="40" y="205" width="240" height="160" rx="6" fill="#fef3c7" stroke="#f59e0b" stroke-width="1.5"/>
    <text x="160" y="227" text-anchor="middle" font-size="11" font-weight="700" fill="#92400e">8×8 频域系数</text>

    <!-- 简化的 8x8 矩阵示意（用 4x4 表示） -->
    <text x="50" y="247" font-size="10" fill="#10b981" font-weight="700">+ 低频 DC</text>
    <text x="50" y="262" font-size="10" fill="#475569">- 中频</text>
    <text x="50" y="277" font-size="10" fill="#dc2626">- 高频 → 量化置零</text>

    <!-- 矩阵 -->
    <g transform="translate(155, 245)">
      <rect x="0" y="0" width="22" height="22" fill="#10b981" opacity="0.9"/>
      <rect x="22" y="0" width="22" height="22" fill="#f59e0b" opacity="0.7"/>
      <rect x="44" y="0" width="22" height="22" fill="#94a3b8" opacity="0.5"/>
      <rect x="66" y="0" width="22" height="22" fill="#94a3b8" opacity="0.3"/>
      <rect x="0" y="22" width="22" height="22" fill="#f59e0b" opacity="0.6"/>
      <rect x="22" y="22" width="22" height="22" fill="#94a3b8" opacity="0.4"/>
      <rect x="44" y="22" width="22" height="22" fill="#94a3b8" opacity="0.2"/>
      <rect x="66" y="22" width="22" height="22" fill="#dc2626" opacity="0.2"/>
      <rect x="0" y="44" width="22" height="22" fill="#94a3b8" opacity="0.4"/>
      <rect x="22" y="44" width="22" height="22" fill="#94a3b8" opacity="0.3"/>
      <rect x="44" y="44" width="22" height="22" fill="#dc2626" opacity="0.1"/>
      <rect x="66" y="44" width="22" height="22" fill="#dc2626" opacity="0.05"/>
      <rect x="0" y="66" width="22" height="22" fill="#94a3b8" opacity="0.2"/>
      <rect x="22" y="66" width="22" height="22" fill="#dc2626" opacity="0.1"/>
      <rect x="44" y="66" width="22" height="22" fill="#dc2626" opacity="0.05"/>
      <rect x="66" y="66" width="22" height="22" fill="#dc2626" opacity="0.02"/>
    </g>
    <text x="220" y="265" text-anchor="middle" font-size="9" fill="#64748b">左上是低频</text>
    <text x="220" y="290" text-anchor="middle" font-size="9" fill="#64748b">右下是高频</text>
    <text x="160" y="350" text-anchor="middle" font-size="10" font-weight="700" fill="#92400e">Z 字扫描 → 0 多 → RLE 压缩</text>

    <rect class="at-hover-card" x="295" y="205" width="265" height="160" rx="6" fill="#dbeafe" stroke="#3b82f6" stroke-width="1.5"/>
    <text x="427" y="227" text-anchor="middle" font-size="11" font-weight="700" fill="#1e40af">量化矩阵（QP 调节）</text>

    <rect x="310" y="245" width="240" height="20" rx="3" fill="#f1f5f9"/>
    <text x="430" y="259" text-anchor="middle" font-size="9" font-family="monospace" fill="#475569">16 11 10 16 24 40 51 61</text>

    <rect x="310" y="270" width="240" height="20" rx="3" fill="#f1f5f9"/>
    <text x="430" y="284" text-anchor="middle" font-size="9" font-family="monospace" fill="#475569">12 12 14 19 26 58 60 55</text>

    <rect x="310" y="295" width="240" height="20" rx="3" fill="#f1f5f9"/>
    <text x="430" y="309" text-anchor="middle" font-size="9" font-family="monospace" fill="#475569">14 13 16 24 40 57 69 56</text>

    <rect x="310" y="320" width="240" height="20" rx="3" fill="#f1f5f9"/>
    <text x="430" y="334" text-anchor="middle" font-size="9" font-family="monospace" fill="#475569">14 17 22 29 51 87 80 62</text>

    <text x="310" y="358" font-size="9" fill="#3b82f6">特点：左上小（保留低频），右下大（丢弃高频）</text>
  </g>

  <!-- 关键点 -->
  <text x="50" y="395" font-size="10" fill="#64748b">💡 DCT 是有损压缩的根因，量化步长 QP 决定画质：QP 小 → 高质量大文件；QP 大 → 低质量小文件</text>
  <text x="50" y="412" font-size="10" fill="#10b981">📌 现代编码（H.265/AV1）用 4×4 / 8×8 / 16×16 / 32×32 多种块尺寸自适应</text>
  <text x="50" y="430" font-size="10" fill="#f59e0b">⚠️ I 帧内所有块都做 DCT，P/B 帧用残差（预测差）做 DCT → 压缩率更高</text>
</svg>
